<?xml version="1.0" encoding="UTF-8" standalone="no"?>
<!-- Created with Inkscape (http://www.inkscape.org/) -->

<svg
   width="64"
   height="64"
   viewBox="0 0 16.933333 16.933333"
   version="1.1"
   id="svg1"
   inkscape:version="1.4.2 (ebf0e940d0, 2025-05-08)"
   sodipodi:docname="audit.svg"
   xml:space="preserve"
   xmlns:inkscape="http://www.inkscape.org/namespaces/inkscape"
   xmlns:sodipodi="http://sodipodi.sourceforge.net/DTD/sodipodi-0.dtd"
   xmlns="http://www.w3.org/2000/svg"
   xmlns:svg="http://www.w3.org/2000/svg"><sodipodi:namedview
     id="namedview1"
     pagecolor="#ffffff"
     bordercolor="#000000"
     borderopacity="0.25"
     inkscape:showpageshadow="2"
     inkscape:pageopacity="0.0"
     inkscape:pagecheckerboard="0"
     inkscape:deskcolor="#d1d1d1"
     inkscape:document-units="mm"
     inkscape:zoom="8.0530018"
     inkscape:cx="24.028307"
     inkscape:cy="42.903256"
     inkscape:window-width="1920"
     inkscape:window-height="1008"
     inkscape:window-x="0"
     inkscape:window-y="0"
     inkscape:window-maximized="1"
     inkscape:current-layer="g3" /><defs
     id="defs1" /><g
     inkscape:label="Layer 1"
     inkscape:groupmode="layer"
     id="layer1"><g
       id="g3"><path
         style="fill:#000000;fill-opacity:1;stroke-width:0.278667"
         d="M 1.7982212,15.588518 C 1.5049009,15.517818 1.2306578,15.325678 1.0195515,15.042962 0.86925619,14.841684 0.86728539,14.76911 0.84550969,8.6329571 c -0.014977,-4.220611 0.00303,-6.292698 0.056207,-6.476072 0.096864,-0.333869 0.49526661,-0.6938386 0.88366741,-0.7984242 0.1977955,-0.053261 1.8341183,-0.072247 5.0330804,-0.058401 l 4.7400015,0.020518 0.272773,0.1696103 c 0.150026,0.093286 0.349098,0.2923589 0.442384,0.4423839 0.163674,0.263227 0.16961,0.329911 0.16961,1.905386 0,1.501948 -0.01124,1.645046 -0.140456,1.787966 -0.183245,0.202682 -0.582354,0.206714 -0.781176,0.0079 -0.136585,-0.136594 -0.147462,-0.245778 -0.147462,-1.480293 v -1.332819 l -0.21552,-0.215521 -0.21552,-0.21552 H 6.694258 c -4.4881049,0 -4.5859149,0.007 -4.7118325,0.335091 -0.059846,0.155961 -0.059846,11.3394019 0,11.4953629 0.1200245,0.31278 0.3297374,0.335091 3.1496505,0.335091 2.4514797,0 2.7000072,0.01129 2.8391448,0.129029 0.2491581,0.21083 0.2714626,0.481019 0.060013,0.72693 L 7.8479626,15.62431 4.9475937,15.63642 C 3.3523905,15.64312 1.935173,15.62152 1.7982219,15.58852 Z M 14.397117,14.663211 13.37149,13.646946 12.892478,13.882763 C 11.985308,14.329361 10.6797,14.456332 9.7972598,14.183773 8.1788125,13.683886 7.0627742,11.688592 7.4204336,9.9343971 7.7211,8.4597301 8.7381644,7.3706431 10.160652,7.0001321 c 1.90062,-0.495049 3.971701,0.679223 4.482316,2.541405 0.27917,1.0181159 0.211566,1.7503589 -0.251461,2.7237009 l -0.296072,0.62238 0.998732,1.000647 c 0.795499,0.797025 0.998732,1.041713 0.998732,1.202452 0,0.193573 -0.221309,0.496727 -0.362622,0.496727 -0.03723,0 -0.121663,0.02071 -0.187617,0.04601 -0.08612,0.03305 -0.408957,-0.240385 -1.145543,-0.970248 z m -2.506861,-1.524789 c 0.685828,-0.206515 1.279447,-0.740388 1.612107,-1.44985 0.164922,-0.351728 0.194292,-0.514911 0.194292,-1.079492 0,-0.603181 -0.02261,-0.7110579 -0.242795,-1.1583129 -0.454736,-0.923699 -1.310226,-1.464905 -2.337775,-1.478939 -1.9954319,-0.02726 -3.2826211,2.0291789 -2.3966268,3.8288869 0.5724021,1.162716 1.8966268,1.721384 3.1707978,1.337707 z M 3.1163172,11.679724 c -0.081923,-0.08192 -0.1474616,-0.245769 -0.1474616,-0.368653 0,-0.122885 0.065539,-0.28673 0.1474616,-0.368653 0.1353817,-0.135383 0.2457685,-0.147461 1.3476097,-0.147461 1.396824,0 1.5278829,0.04365 1.5278829,0.508867 0,0.490142 -0.095135,0.523361 -1.4988502,0.523361 -1.1308739,0 -1.2409748,-0.01179 -1.3766424,-0.147461 z m 0,-3.2441459 c -0.081923,-0.08192 -0.1474616,-0.245768 -0.1474616,-0.368652 0,-0.122885 0.065539,-0.286731 0.1474616,-0.368653 0.139269,-0.139269 0.2457685,-0.147462 1.9169948,-0.147462 1.6712264,0 1.7777259,0.0082 1.9169949,0.147462 0.081923,0.08192 0.1474615,0.245768 0.1474615,0.368653 0,0.122884 -0.065539,0.28673 -0.1474615,0.368652 -0.139269,0.139269 -0.2457685,0.147462 -1.9169949,0.147462 -1.6712263,0 -1.7777258,-0.0082 -1.9169948,-0.147462 z m 0.046811,-3.323227 c -0.2699553,-0.212347 -0.2686789,-0.588991 0.00271,-0.802473 0.1945126,-0.153003 0.2390999,-0.154693 3.5456276,-0.13438 l 3.3486382,0.02057 0.140902,0.174062 c 0.191605,0.2367 0.176998,0.496984 -0.04007,0.714057 L 9.9799777,5.2651621 H 6.6686819 c -3.2382949,0 -3.3155666,-0.0034 -3.5055541,-0.152813 z"
         id="path4" /></g></g></svg>
