<?xml version="1.0" encoding="UTF-8" standalone="no"?>
<!-- Created with Inkscape (http://www.inkscape.org/) -->

<svg
   width="64"
   height="64"
   viewBox="0 0 16.933333 16.933333"
   version="1.1"
   id="svg1"
   inkscape:version="1.4.2 (ebf0e940d0, 2025-05-08)"
   sodipodi:docname="coffee.svg"
   xml:space="preserve"
   xmlns:inkscape="http://www.inkscape.org/namespaces/inkscape"
   xmlns:sodipodi="http://sodipodi.sourceforge.net/DTD/sodipodi-0.dtd"
   xmlns="http://www.w3.org/2000/svg"
   xmlns:svg="http://www.w3.org/2000/svg"><sodipodi:namedview
     id="namedview1"
     pagecolor="#ffffff"
     bordercolor="#000000"
     borderopacity="0.25"
     inkscape:showpageshadow="2"
     inkscape:pageopacity="0.0"
     inkscape:pagecheckerboard="0"
     inkscape:deskcolor="#d1d1d1"
     inkscape:document-units="mm"
     inkscape:zoom="4.0265009"
     inkscape:cx="9.5616519"
     inkscape:cy="10.306716"
     inkscape:window-width="1920"
     inkscape:window-height="1008"
     inkscape:window-x="0"
     inkscape:window-y="0"
     inkscape:window-maximized="1"
     inkscape:current-layer="g3" /><defs
     id="defs1" /><g
     inkscape:label="Layer 1"
     inkscape:groupmode="layer"
     id="layer1"><g
       id="g3"><path
         id="path1"
         style="fill:#000000;stroke-width:0.151805"
         d="M 4.2906942,0.45371908 4.1671875,0.56430664 C 4.0562167,0.66356304 4.0244293,0.75238292 3.8529948,1.4381551 L 3.6623088,2.2008993 3.3207275,2.2215698 C 2.9679377,2.2429356 2.8060465,2.3064862 2.7259318,2.4561808 2.703894,2.4973582 2.5746634,2.9747209 2.4391276,3.5165812 2.1930368,4.50044 2.1934143,4.5018444 2.262911,4.6482951 c 0.1065358,0.2245118 0.2217275,0.2635498 0.7792806,0.2635498 0.4748622,0 0.4838263,0.00176 0.4847249,0.090434 4.752e-4,0.049704 0.027392,0.4157525 0.059428,0.8133871 0.07952,0.9869773 0.087122,0.9038208 -0.083199,0.9038208 -0.105237,0 -0.174967,0.031305 -0.2609659,0.1173055 -0.1029544,0.1029499 -0.1174379,0.1466929 -0.1173055,0.3519165 3.324e-4,0.5173282 0.4382618,6.3182235 0.4836914,6.4068445 0.0764,0.149025 0.2076094,0.231079 0.37052,0.232027 0.084266,4.99e-4 0.1604057,0.02383 0.1705322,0.05168 0.010038,0.02762 0.054501,0.561534 0.098702,1.186491 0.0442,0.624958 0.098877,1.170687 0.1214396,1.212846 0.02256,0.04216 0.081298,0.104224 0.1302246,0.138493 0.078888,0.05521 0.5274787,0.06253 3.966683,0.06253 4.1854073,0 3.9839033,0.01016 4.0969073,-0.201021 0.02256,-0.04216 0.07724,-0.587888 0.12144,-1.212846 0.0442,-0.624957 0.08861,-1.158874 0.0987,-1.186491 0.01009,-0.02785 0.08627,-0.05118 0.170532,-0.05168 0.16291,-9.57e-4 0.294122,-0.08301 0.37052,-0.232027 0.04543,-0.08862 0.483357,-5.8895162 0.483691,-6.4068445 1.33e-4,-0.2052236 -0.01435,-0.2489665 -0.117305,-0.3519165 -0.086,-0.085998 -0.15573,-0.1173055 -0.260966,-0.1173055 -0.17032,0 -0.162713,0.083157 -0.0832,-0.9038208 0.03203,-0.3976335 0.05895,-0.7636796 0.05943,-0.8133871 8.45e-4,-0.088674 0.0098,-0.090434 0.484725,-0.090434 0.557553,0 0.672746,-0.039039 0.77928,-0.2635498 0.0695,-0.146456 0.06988,-0.1478551 -0.176216,-1.1317139 C 14.358671,2.9747209 14.229441,2.4973568 14.207402,2.4561808 14.127288,2.3064859 13.965394,2.2429342 13.612606,2.2215698 L 13.271025,2.2008993 13.080339,1.4381551 C 12.908905,0.75238292 12.877118,0.66356315 12.766146,0.56430664 L 12.642639,0.45371908 H 8.4666667 Z M 4.7966064,1.3575399 h 3.6700603 3.6700603 l 0.10852,0.4314982 0.108004,0.432015 H 8.4666667 4.5800822 L 4.6880859,1.7890381 Z M 3.4561198,3.1450277 h 5.0105469 5.0105473 l 0.105419,0.4206461 c 0.05795,0.2312805 0.10542,0.4295964 0.10542,0.4413168 0,0.01171 -2.349589,0.021704 -5.2213863,0.021704 -2.8717975,0 -5.2213868,-0.00998 -5.2213868,-0.021704 0,-0.011718 0.047467,-0.2100363 0.10542,-0.4413168 z m 0.9136393,1.7668172 h 4.0969076 4.0969073 v 0.1452108 c 0,0.1828223 -0.07581,1.2646668 -0.104386,1.4918986 L 12.438,6.7194865 H 4.4953328 L 4.4741455,6.5489543 C 4.4455749,6.3217225 4.3697591,5.239878 4.3697591,5.0570557 Z m 4.0963908,2.5114746 c 0.2470491,-1.025e-4 0.3728414,0.011842 0.578776,0.05426 0.7287392,0.1501185 1.3825501,0.590087 1.8009241,1.2123291 0.261556,0.3890104 0.415718,0.8120925 0.473356,1.2981119 0.01549,0.1305642 0.01312,0.4914022 -0.0041,0.6258012 -0.04589,0.357135 -0.129697,0.638587 -0.28112,0.943095 -0.281851,0.566802 -0.730707,1.014736 -1.2965619,1.294495 -0.3077567,0.152155 -0.5720013,0.232927 -0.9079549,0.278019 -0.1378489,0.0185 -0.4604389,0.02674 -0.5947957,0.01499 C 7.8140162,13.10764 7.4102847,12.981651 7.0414307,12.772347 6.6828601,12.568879 6.3287767,12.239953 6.0947184,11.892814 6.0040533,11.758344 5.9613527,11.683711 5.8859456,11.528495 5.7459399,11.24031 5.6658643,10.972041 5.6213623,10.641211 5.6071564,10.535595 5.6041195,10.475856 5.6037923,10.293429 5.6033882,10.062223 5.6094713,9.9854148 5.6425496,9.794751 5.7731967,9.0424558 6.1995003,8.3749901 6.8321411,7.9323324 7.1634836,7.7004915 7.5576031,7.5361121 7.9519694,7.4651774 8.1473815,7.4300294 8.2299327,7.4234195 8.4661499,7.4233195 Z M 8.4511637,8.0103638 C 8.2345153,8.0110751 8.1200184,8.0240827 7.9369832,8.0677246 7.1379623,8.2582569 6.5018025,8.8643978 6.2761027,9.6505737 6.2115257,9.8755151 6.1912194,10.02892 6.1913534,10.289294 c 1.11e-4,0.214431 0.00803,0.293863 0.047026,0.479041 0.1252699,0.594866 0.4951073,1.122661 1.0144084,1.447974 0.3062721,0.191862 0.6430517,0.305423 1.010791,0.341064 0.1137558,0.01103 0.4096556,0.0029 0.523999,-0.01447 0.5118425,-0.07767 0.9311518,-0.287578 1.2903607,-0.645956 0.361039,-0.360207 0.571978,-0.786479 0.650089,-1.314131 0.01059,-0.07153 0.01362,-0.140333 0.01344,-0.301274 -2.66e-4,-0.229266 -0.01183,-0.3367535 -0.05684,-0.5255493 C 10.478466,8.8914764 9.7890167,8.2250888 8.9224528,8.0522217 8.7434887,8.0165185 8.6658758,8.0096382 8.4511637,8.0103638 Z m 0.031414,0.4560574 c 0.056162,1.36e-5 0.071352,0.00317 0.1043864,0.020671 0.049596,0.026285 0.091244,0.06953 0.1136881,0.118339 l 0.018087,0.038757 -0.014361,0.6756565 0.00207,0.9467124 0.1834513,0.07906 c 0.1008411,0.04336 0.3449759,0.148292 0.5426026,0.233577 0.1976266,0.08529 0.1945939,0.08255 0.3149009,0.134088 0.231934,0.09935 0.2611169,0.117101 0.2899039,0.177767 0.04413,0.09299 0.02389,0.20847 -0.050126,0.284737 -0.04255,0.04385 -0.085917,0.06325 -0.149345,0.06666 l -0.05426,0.0026 -0.2201414,-0.0956 C 9.2709707,11.02257 8.7902286,10.817296 8.5436646,10.712008 8.3672194,10.636661 8.3422721,10.623787 8.3069865,10.589535 c -0.026413,-0.02564 -0.045443,-0.05336 -0.057878,-0.08423 l -0.018603,-0.04599 -0.00207,-1.0123414 c -0.00242,-1.0511022 0.01452,-0.7999911 0.045883,-0.8606581 0.01836,-0.03554 0.06444,-0.079111 0.1080037,-0.1018026 0.028525,-0.014853 0.046377,-0.018101 0.1002523,-0.018087 z M 5.0126139,13.828613 h 3.4540528 3.4540523 l 5.17e-4,0.171049 c 3.66e-4,0.217682 -0.07773,1.373826 -0.104386,1.546159 l -0.02015,0.130225 H 8.4666667 5.1366374 L 5.1164836,15.545821 C 5.0898297,15.373488 5.0117933,14.217344 5.0120972,13.999662 Z"
         sodipodi:nodetypes="cccccsccsccscscccsscsssccssssccscscccccccccccccccccccccssscccccsccccscscsccssscssssccsssccsscsccssccscscccccccscccccsscccccsccccccccccc" /></g></g></svg>
