<?xml version="1.0" encoding="UTF-8" standalone="no"?>
<!-- Created with Inkscape (http://www.inkscape.org/) -->

<svg
   width="64"
   height="64"
   viewBox="0 0 16.933333 16.933333"
   version="1.1"
   id="svg1"
   inkscape:version="1.4.2 (ebf0e940d0, 2025-05-08)"
   sodipodi:docname="controller.svg"
   xml:space="preserve"
   xmlns:inkscape="http://www.inkscape.org/namespaces/inkscape"
   xmlns:sodipodi="http://sodipodi.sourceforge.net/DTD/sodipodi-0.dtd"
   xmlns="http://www.w3.org/2000/svg"
   xmlns:svg="http://www.w3.org/2000/svg"><sodipodi:namedview
     id="namedview1"
     pagecolor="#ffffff"
     bordercolor="#000000"
     borderopacity="0.25"
     inkscape:showpageshadow="2"
     inkscape:pageopacity="0.0"
     inkscape:pagecheckerboard="0"
     inkscape:deskcolor="#d1d1d1"
     inkscape:document-units="mm"
     inkscape:zoom="4.026501"
     inkscape:cx="5.5879782"
     inkscape:cy="54.762187"
     inkscape:window-width="1920"
     inkscape:window-height="1008"
     inkscape:window-x="0"
     inkscape:window-y="0"
     inkscape:window-maximized="1"
     inkscape:current-layer="g3" /><defs
     id="defs1" /><g
     inkscape:label="Layer 1"
     inkscape:groupmode="layer"
     id="layer1"><g
       id="g3"><path
         style="fill:#000000;stroke-width:0.0767913"
         d="M 3.6829193,15.099129 C 2.1682604,14.771916 0.92818958,13.619471 0.50328499,12.144177 0.3793423,11.713836 0.34245056,11.438277 0.34279854,10.945428 0.3431057,10.48082 0.36455979,10.295797 0.46306414,9.9071972 0.53737366,9.6140473 0.62369157,9.3807492 0.76676828,9.0863513 1.3900081,7.8039565 2.6365651,6.9183407 4.0684236,6.740691 4.1837761,6.72638 5.6266517,6.71933 8.4407845,6.71933 c 3.6071535,0 4.2326125,0.00428 4.4298075,0.030311 1.892269,0.2497948 3.393374,1.7508984 3.643168,3.643167 0.04329,0.327962 0.03922,0.847071 -0.0092,1.172312 -0.237747,1.597037 -1.342403,2.911365 -2.866964,3.411135 -0.47144,0.154543 -0.501264,0.157776 -1.384561,0.150091 l -0.778253,-0.0068 -0.240571,-0.06557 C 10.779533,14.930085 10.351674,14.737414 9.9736038,14.486351 9.7694152,14.350756 9.4712262,14.111187 9.3630194,13.995799 l -0.059675,-0.06364 H 8.4530378 7.6027307 l -0.2379715,0.205727 c -0.5346323,0.462182 -1.0911736,0.753067 -1.7687387,0.924459 l -0.2710637,0.06856 -0.7549834,-0.0016 c -0.5668373,-0.0012 -0.7878961,-0.0087 -0.8870497,-0.03014 z M 5.0117075,12.80666 c 0.037283,-0.01557 0.09413,-0.06284 0.1263332,-0.105039 l 0.058554,-0.07672 0.00601,-0.524811 0.00601,-0.524812 0.5120616,-7.6e-5 c 0.475118,-7e-5 0.516839,-0.003 0.5782802,-0.04045 C 6.434964,11.451832 6.4459136,11.408927 6.4459982,10.958656 6.4460754,10.502277 6.4338752,10.450813 6.306767,10.37177 6.235763,10.32762 6.211782,10.32547 5.719714,10.31939 L 5.2066901,10.31299 V 9.8197189 c 0,-0.4740353 -0.00178,-0.4967393 -0.046223,-0.5807282 C 5.0807232,9.0881935 5.0369099,9.0761803 4.5669952,9.076268 c -0.4540326,8.45e-5 -0.4964437,0.010846 -0.5794829,0.1470423 -0.037461,0.061438 -0.040377,0.103161 -0.040451,0.5779743 l -7.57e-5,0.5117554 -0.5130239,0.0064 c -0.5682989,0.007 -0.5962286,0.01284 -0.6892025,0.143186 -0.044992,0.06309 -0.047626,0.08559 -0.053613,0.458682 -0.00586,0.364823 -0.00326,0.398552 0.036556,0.480864 0.077637,0.160376 0.082665,0.161655 0.6808668,0.173159 l 0.528262,0.01016 0.010157,0.528262 c 0.011463,0.596078 0.012917,0.601929 0.1690203,0.679198 0.076544,0.03789 0.1217139,0.04205 0.4564038,0.04207 0.2716803,1.1e-5 0.3896585,-0.0076 0.4392338,-0.02831 z m 7.5828305,-0.04301 c 0.217516,-0.106421 0.339957,-0.30758 0.339957,-0.558516 0,-0.248362 -0.121638,-0.449979 -0.340942,-0.565112 -0.08773,-0.04606 -0.128301,-0.05405 -0.275579,-0.0543 -0.148219,-2.45e-4 -0.189066,0.0078 -0.288139,0.0564 -0.125191,0.06148 -0.213887,0.149722 -0.285658,0.2842 -0.03827,0.0717 -0.04579,0.117476 -0.04579,0.278804 0,0.162189 0.0074,0.206945 0.0465,0.280208 0.08424,0.157951 0.247068,0.286443 0.420698,0.331982 0.107173,0.02811 0.314922,0.0021 0.428947,-0.05367 z m -1.257462,-1.245937 c 0.132733,-0.0685 0.222253,-0.157997 0.284199,-0.284143 0.04865,-0.09907 0.05665,-0.13992 0.0564,-0.288139 -2.3e-4,-0.147278 -0.0082,-0.187845 -0.05429,-0.275579 -0.06505,-0.123918 -0.191213,-0.242265 -0.318811,-0.299077 -0.142685,-0.06353 -0.372579,-0.05739 -0.518158,0.01384 -0.128971,0.0631 -0.24358,0.181958 -0.303277,0.314518 -0.05147,0.114294 -0.05965,0.361683 -0.01554,0.469796 0.0715,0.175245 0.212951,0.31553 0.381364,0.37822 0.114953,0.04279 0.379014,0.02687 0.488119,-0.02943 z m 2.517396,-0.0091 c 0.222486,-0.113923 0.343053,-0.329498 0.329418,-0.589006 -0.01836,-0.34947 -0.271771,-0.592115 -0.615437,-0.589294 -0.309828,0.0025 -0.524829,0.165148 -0.6112,0.462256 -0.08483,0.29182 0.0816,0.629753 0.365646,0.742418 0.148197,0.05879 0.388556,0.04685 0.531573,-0.02638 z m -1.373135,-1.20531 c 0.552029,-0.163935 0.62154,-0.9155675 0.108047,-1.1683481 -0.141299,-0.069558 -0.422451,-0.069729 -0.555859,-3.378e-4 -0.210158,0.1093116 -0.325375,0.286098 -0.34092,0.5231017 -0.01583,0.2413406 0.07475,0.4333672 0.265021,0.5618492 0.165097,0.111481 0.337473,0.139042 0.523711,0.08373 z M 7.8950772,6.2038352 C 7.9270698,5.7167929 8.0906732,5.2398161 8.3733491,4.8094592 8.5256712,4.5775572 8.920234,4.1843215 9.1564997,4.0289419 9.4646704,3.8262735 9.815752,3.678949 10.185884,3.5969803 c 0.131511,-0.029124 0.388237,-0.035116 1.979707,-0.046202 1.809128,-0.012603 1.83033,-0.01322 1.991141,-0.057997 0.437003,-0.1216811 0.798437,-0.3842245 1.043017,-0.7576396 0.148644,-0.2269436 0.26748,-0.6015044 0.26748,-0.8430706 v -0.089643 h 0.561654 0.561654 l -0.01396,0.1879395 C 16.478057,3.316715 15.526278,4.3722752 14.207527,4.617739 14.034609,4.649925 13.833599,4.654381 12.277337,4.660526 11.147089,4.664996 10.498001,4.675081 10.419476,4.689411 10.099831,4.7477424 9.7253741,4.947134 9.5005115,5.1787405 9.2100073,5.4779571 9.0077019,5.9320672 9.0065259,6.2875774 L 9.0061423,6.3942457 H 8.4443385 7.8825361 Z"
         id="path3" /></g></g></svg>
