<?xml version="1.0" encoding="UTF-8" standalone="no"?>
<!-- Created with Inkscape (http://www.inkscape.org/) -->

<svg
   width="64"
   height="64"
   viewBox="0 0 16.933333 16.933333"
   version="1.1"
   id="svg1"
   inkscape:version="1.4.2 (ebf0e940d0, 2025-05-08)"
   sodipodi:docname="deadlineFuel.svg"
   xml:space="preserve"
   xmlns:inkscape="http://www.inkscape.org/namespaces/inkscape"
   xmlns:sodipodi="http://sodipodi.sourceforge.net/DTD/sodipodi-0.dtd"
   xmlns="http://www.w3.org/2000/svg"
   xmlns:svg="http://www.w3.org/2000/svg"><sodipodi:namedview
     id="namedview1"
     pagecolor="#ffffff"
     bordercolor="#000000"
     borderopacity="0.25"
     inkscape:showpageshadow="2"
     inkscape:pageopacity="0.0"
     inkscape:pagecheckerboard="0"
     inkscape:deskcolor="#d1d1d1"
     inkscape:document-units="mm"
     inkscape:zoom="4.0265009"
     inkscape:cx="12.790262"
     inkscape:cy="2.3593687"
     inkscape:window-width="1920"
     inkscape:window-height="1008"
     inkscape:window-x="0"
     inkscape:window-y="0"
     inkscape:window-maximized="1"
     inkscape:current-layer="g3" /><defs
     id="defs1" /><g
     inkscape:label="Layer 1"
     inkscape:groupmode="layer"
     id="layer1"><g
       id="g3"><path
         id="path5"
         style="fill:#000000;fill-opacity:1;stroke-width:0.126979"
         d="M 6.556189 0.74724121 C 3.9133359 0.74015671 2.8009531 0.74822932 2.7099121 0.77462972 C 2.5452133 0.82238939 2.3240477 1.0225578 2.2458577 1.1942424 C 2.1872817 1.3227726 2.1845567 1.6164551 2.183846 7.9385335 L 2.1828125 14.548983 L 1.686202 14.548983 C 1.2377031 14.548983 1.1748069 14.55619 1.0397298 14.62443 C 0.95743136 14.666005 0.85562981 14.751293 0.81390381 14.814083 C 0.7838548 14.900383 0.76346477 14.945536 0.74982503 14.966528 C 0.75363053 14.989067 0.75730457 15.024641 0.75964355 15.078149 C 0.74919227 15.117288 0.74362386 15.158617 0.74362386 15.201139 L 0.74362386 15.721004 C 0.74362386 15.982396 0.95403756 16.19281 1.2154297 16.19281 L 11.760006 16.19281 C 12.021398 16.19281 12.231812 15.982396 12.231812 15.721004 L 12.231812 15.201139 C 12.231812 15.154741 12.22506 15.109593 12.212691 15.067297 C 12.214007 15.025727 12.216105 14.996667 12.218376 14.976347 C 12.205883 14.960781 12.185403 14.915871 12.153263 14.815116 C 12.111143 14.751742 12.009221 14.666 11.926921 14.62443 C 11.791845 14.55623 11.728947 14.548983 11.280448 14.548983 L 10.783838 14.548983 L 10.783838 10.949719 L 10.783838 7.3509725 L 10.876855 7.369576 C 11.309792 7.4561634 11.68652 7.7516705 11.827702 8.1152669 C 11.903763 8.3111529 11.906916 8.3563693 11.927954 9.7275716 C 11.952247 11.311113 11.965018 11.410064 12.219409 11.926404 C 12.388608 12.269828 12.758093 12.642972 13.081889 12.797668 C 13.688967 13.087734 14.534357 13.072973 15.128276 12.762012 C 15.5511 12.540634 15.904294 12.083653 16.097209 11.508341 L 16.175757 11.273214 L 16.185575 8.3669312 L 16.194877 5.4611654 L 15.557707 4.8394979 C 12.740143 2.0911619 12.987335 2.319755 12.834359 2.319755 C 12.646353 2.319755 12.518046 2.3930139 12.448336 2.5398966 C 12.331466 2.7861823 12.355418 2.8211675 13.221932 3.6721273 L 14.008964 4.4452067 L 14.008964 5.4069051 L 14.008964 6.3686035 L 14.714347 7.0734701 L 15.420247 7.7783366 L 15.419214 9.2738525 C 15.41852 10.830803 15.40067 11.10915 15.280204 11.435994 C 15.185931 11.691773 14.938838 11.963164 14.687476 12.086601 C 14.509101 12.174281 14.468141 12.180135 14.075627 12.180135 C 13.667623 12.180135 13.648085 12.177073 13.429671 12.069548 C 13.124774 11.919447 12.920854 11.661801 12.798702 11.273214 C 12.769372 11.179885 12.749253 10.707527 12.733073 9.7275716 C 12.711713 8.4333899 12.703838 8.295067 12.637988 8.0542887 C 12.535009 7.6777204 12.38248 7.4096441 12.124841 7.1530518 C 11.855002 6.8843091 11.539814 6.718513 11.095447 6.610966 L 10.785905 6.5360352 L 10.776603 3.8933024 L 10.766785 1.2505697 L 10.664982 1.1053589 C 10.609031 1.0257609 10.498086 0.91532767 10.418486 0.85937907 L 10.273792 0.7575765 L 6.556189 0.74724121 z M 12.218376 14.976347 C 12.221339 14.98004 12.224533 14.982278 12.226644 14.983065 L 12.227161 14.983065 L 12.227677 14.983065 L 12.228194 14.983065 L 12.228711 14.983065 L 12.229228 14.983065 L 12.229744 14.982548 L 12.230261 14.982031 L 12.230778 14.982031 L 12.231295 14.981514 L 12.231812 14.980998 C 12.237803 14.972842 12.23492 14.944012 12.230261 14.937073 L 12.229744 14.936556 L 12.229228 14.936556 L 12.229228 14.936039 L 12.228711 14.936039 L 12.228194 14.936039 L 12.228194 14.936556 L 12.227677 14.936556 L 12.227161 14.937073 L 12.226644 14.93759 C 12.223908 14.94135 12.220994 14.952913 12.218376 14.976347 z M 0.74982503 14.966528 C 0.74626883 14.945467 0.74199677 14.935749 0.73845622 14.932939 L 0.73793945 14.932422 L 0.73742269 14.932422 L 0.73690592 14.931905 L 0.73638916 14.931905 L 0.7358724 14.932422 L 0.73535563 14.932422 L 0.73483887 14.932422 L 0.73483887 14.932939 L 0.7343221 14.933455 L 0.73380534 14.933972 C 0.72708323 14.941774 0.72392512 14.97344 0.73070475 14.980998 L 0.73122152 14.981514 L 0.73173828 14.981514 L 0.73225505 14.982031 L 0.73277181 14.982031 L 0.73328857 14.982031 L 0.73380534 14.982031 L 0.7343221 14.982031 L 0.73483887 14.982031 L 0.73535563 14.982031 L 0.7358724 14.981514 C 0.73938206 14.98019 0.74386058 14.975708 0.74982503 14.966528 z M 6.4833252 2.3869344 C 9.6685579 2.3869344 9.7405762 2.3884847 9.7745972 2.4520467 C 9.8228022 2.5421153 9.8228022 7.775083 9.7745972 7.865153 C 9.7405799 7.928679 9.6685579 7.9302653 6.4833252 7.9302653 C 3.2980922 7.9302653 3.2260742 7.928715 3.1920532 7.865153 C 3.1438482 7.7750837 3.1438482 2.5421157 3.1920532 2.4520467 C 3.2260711 2.3885207 3.2980922 2.3869344 6.4833252 2.3869344 z M 3.9635824 9.3751383 L 4.6524292 9.3751383 L 5.341276 9.3751383 L 5.341276 11.491805 L 5.341276 13.607955 L 4.6524292 13.607955 L 3.9635824 13.607955 L 3.9635824 11.491805 L 3.9635824 9.3751383 z " /></g></g></svg>
