<?xml version="1.0" encoding="UTF-8" standalone="no"?>
<!-- Created with Inkscape (http://www.inkscape.org/) -->

<svg
   width="32"
   height="32"
   viewBox="0 0 8.4666665 8.4666665"
   version="1.1"
   id="svg1"
   inkscape:version="1.4.2 (ebf0e940d0, 2025-05-08)"
   sodipodi:docname="favicon.svg"
   xml:space="preserve"
   xmlns:inkscape="http://www.inkscape.org/namespaces/inkscape"
   xmlns:sodipodi="http://sodipodi.sourceforge.net/DTD/sodipodi-0.dtd"
   xmlns:xlink="http://www.w3.org/1999/xlink"
   xmlns="http://www.w3.org/2000/svg"
   xmlns:svg="http://www.w3.org/2000/svg"><sodipodi:namedview
     id="namedview1"
     pagecolor="#ffffff"
     bordercolor="#000000"
     borderopacity="0.25"
     inkscape:showpageshadow="2"
     inkscape:pageopacity="0.0"
     inkscape:pagecheckerboard="0"
     inkscape:deskcolor="#d1d1d1"
     inkscape:document-units="mm"
     inkscape:zoom="1.0066253"
     inkscape:cx="-25.828877"
     inkscape:cy="102.8188"
     inkscape:window-width="1920"
     inkscape:window-height="1008"
     inkscape:window-x="0"
     inkscape:window-y="0"
     inkscape:window-maximized="1"
     inkscape:current-layer="layer1" /><defs
     id="defs1"><linearGradient
       id="linearGradient4"
       inkscape:collect="always"><stop
         style="stop-color:#3cb3d8;stop-opacity:1;"
         offset="0"
         id="stop4" /><stop
         style="stop-color:#9a36fe;stop-opacity:1;"
         offset="1"
         id="stop5" /></linearGradient><linearGradient
       inkscape:collect="always"
       xlink:href="#linearGradient4"
       id="linearGradient5"
       x1="-3.9097738"
       y1="3.7126422"
       x2="3.3840899"
       y2="3.7126422"
       gradientUnits="userSpaceOnUse"
       gradientTransform="matrix(1.1351351,0,0,1.1351351,4.5316942,0.01898275)" /></defs><g
     inkscape:label="Layer 1"
     inkscape:groupmode="layer"
     id="layer1"><g
       id="g5"
       inkscape:export-filename="apple-touch-icon.png"
       inkscape:export-xdpi="96"
       inkscape:export-ydpi="96"
       transform="matrix(1.0226034,0,0,1.0226034,-0.00211506,-0.00211506)"><circle
         style="fill:url(#linearGradient5);stroke-width:2.83783;stroke-linecap:round;stroke-miterlimit:10;paint-order:stroke fill markers"
         id="path4"
         cx="4.2333331"
         cy="4.2333331"
         r="4.1397605" /><g
         id="g3"
         style="fill:#ffffff;stroke:none;stroke-width:0.518189;stroke-dasharray:none;stroke-opacity:1"
         transform="matrix(0.96489915,0,0,0.96489915,0.14859362,0.14859362)"><g
           id="g4"
           transform="matrix(0.38809899,0,0,0.38809899,0.94956585,0.94574903)"
           style="fill:#ffffff;stroke:none;stroke-width:1.3352;stroke-dasharray:none;stroke-opacity:1"><path
             style="fill:#ffffff;fill-opacity:1;stroke:none;stroke-width:1.3352;stroke-dasharray:none;stroke-opacity:1"
             d="M 3.3141719,16.381097 C 2.9938699,16.304954 2.7441548,16.107424 2.613003,15.826449 2.4107429,11.031772 2.5230278,6.1533287 2.5255843,1.3322919 L 2.5626313,1.2235176 C 2.616351,1.065781 2.6876652,0.95258553 2.8110795,0.82917043 2.9344947,0.70575583 3.0476899,0.63443973 3.205427,0.58072233 l 0.1087737,-0.037043 h 6.7711923 l 0.08158,0.039401 c 0.07264,0.035084 0.304581,0.2622913 2.11693,2.07374247 1.950779,1.9498123 2.037218,2.0382859 2.080306,2.1292836 l 0.04496,0.094943 c -0.0424,3.556321 0.0704,7.1156386 -0.0069,10.6715406 -0.03335,0.218245 -0.120828,0.38773 -0.285481,0.553093 -0.133106,0.133681 -0.271498,0.214259 -0.44357,0.258268 -3.450129,0.0404 -6.9068951,0.04389 -10.3590645,0.01719 z M 13.416591,5.4929037 l -1.584024,-0.0073 c -1.70066,-0.00784 -1.62065,-0.00422 -1.790177,-0.081085 C 9.7436916,5.2690961 9.530011,4.9941486 9.4723806,4.6711232 9.4577328,4.5890271 9.4539488,4.2623054 9.4535648,3.0488841 L 9.4531016,1.5294449 h -5.94179 V 15.411747 h 9.9120834 z m -1.828813,-2.121128 -1.1353,-1.1353624 -0.0035,1.1183664 c -0.0019,0.6151014 -5.96e-4,1.1260145 0.003,1.1353622 0.0051,0.013409 0.245472,0.016996 1.138811,0.016996 h 1.132327 z"
             id="path1"
             sodipodi:nodetypes="cscccsccssccssscccscsccccccccccscc" /><path
             style="fill:#ffffff;stroke:none;stroke-width:1.3352;stroke-dasharray:none;stroke-opacity:1"
             d="m 11.817568,13.978377 c 0.468899,-0.341651 0.613708,-0.453924 0.617633,-0.478864 0.0078,-0.04923 -0.446593,-0.664801 -0.517084,-0.700565 -0.06445,-0.0327 -0.15981,-0.04685 -0.227542,-0.03368 l -0.05234,0.01012 -0.41342,-0.567827 -0.413421,-0.567828 0.33416,-0.244077 c 0.362139,-0.264512 0.399286,-0.302427 0.454743,-0.464099 0.05505,-0.160437 0.0121,-0.416031 -0.110957,-0.660304 -0.0826,-0.163992 -0.122825,-0.219244 -0.16437,-0.225782 -0.02768,-0.0044 -0.332929,0.21196 -1.5642418,1.108484 -1.2771731,0.929916 -1.5308039,1.11992 -1.5355965,1.150378 -0.00446,0.0283 0.010635,0.05516 0.067317,0.119817 0.2261942,0.258019 0.5008924,0.418529 0.7053033,0.412121 0.1575053,-0.005 0.2076952,-0.03059 0.5664812,-0.28926 l 0.3370952,-0.24303 0.4147016,0.571516 0.414702,0.571518 -0.02441,0.03752 c -0.03728,0.0573 -0.05388,0.186669 -0.03298,0.255897 0.02604,0.08577 0.457907,0.672676 0.499833,0.679273 0.02388,0.0038 0.183724,-0.10572 0.644273,-0.441288 z M 8.8324359,11.150711 C 8.9982867,11.029835 9.132734,10.924178 9.1312081,10.915921 9.1296954,10.907609 8.7180192,10.213971 8.2164026,9.3743801 7.7147857,8.5347904 7.3013565,7.8401831 7.2976705,7.8308086 c -0.00952,-0.024207 0.012818,-0.057824 0.036016,-0.054173 0.010762,0.00169 0.5529287,0.6112696 1.2048186,1.3546136 0.6518898,0.7433446 1.190134,1.3523028 1.1960986,1.3532408 0.00593,9.33e-4 0.147396,-0.09782 0.3142913,-0.219453 L 10.352344,10.043876 8.370482,7.3217818 6.3886209,4.599689 5.4667761,4.2650378 C 4.9597609,4.0809794 4.5315328,3.9248658 4.5151588,3.9181196 c -0.025872,-0.010652 -0.029509,-0.00791 -0.027771,0.020735 0.00235,0.03847 0.033465,0.9041424 0.055525,1.5442397 l 0.01529,0.4435999 1.97947,2.7208147 c 1.088711,1.4964491 1.9825652,2.7213031 1.9863438,2.7218971 0.00377,5.95e-4 0.1425675,-0.09782 0.3084193,-0.218695 z"
             id="path3" /></g></g></g></g></svg>
