<?xml version="1.0" encoding="UTF-8" standalone="no"?>
<!-- Created with Inkscape (http://www.inkscape.org/) -->

<svg
   width="64"
   height="64"
   viewBox="0 0 16.933333 16.933333"
   version="1.1"
   id="svg1"
   inkscape:version="1.4.2 (ebf0e940d0, 2025-05-08)"
   sodipodi:docname="fraud.svg"
   xml:space="preserve"
   xmlns:inkscape="http://www.inkscape.org/namespaces/inkscape"
   xmlns:sodipodi="http://sodipodi.sourceforge.net/DTD/sodipodi-0.dtd"
   xmlns="http://www.w3.org/2000/svg"
   xmlns:svg="http://www.w3.org/2000/svg"><sodipodi:namedview
     id="namedview1"
     pagecolor="#ffffff"
     bordercolor="#000000"
     borderopacity="0.25"
     inkscape:showpageshadow="2"
     inkscape:pageopacity="0.0"
     inkscape:pagecheckerboard="0"
     inkscape:deskcolor="#d1d1d1"
     inkscape:document-units="mm"
     inkscape:zoom="4.0265009"
     inkscape:cx="-27.939892"
     inkscape:cy="2.3593687"
     inkscape:window-width="1920"
     inkscape:window-height="1008"
     inkscape:window-x="0"
     inkscape:window-y="0"
     inkscape:window-maximized="1"
     inkscape:current-layer="g3" /><defs
     id="defs1" /><g
     inkscape:label="Layer 1"
     inkscape:groupmode="layer"
     id="layer1"><g
       id="g3"><g
         id="g1"><path
           style="fill:#000000;fill-opacity:1;stroke-width:0.0513894"
           d="M 3.3141719,16.381097 C 2.9938699,16.304954 2.7441548,16.107424 2.613003,15.826449 2.4107429,11.031772 2.5230278,6.1533287 2.5255843,1.3322919 L 2.5626313,1.2235176 C 2.616351,1.065781 2.6876652,0.95258553 2.8110795,0.82917043 2.9344947,0.70575583 3.0476899,0.63443973 3.205427,0.58072233 l 0.1087737,-0.037043 h 6.7711923 l 0.08158,0.039401 c 0.07264,0.035084 0.304581,0.2622913 2.11693,2.07374247 1.950779,1.9498123 2.037218,2.0382859 2.080306,2.1292836 l 0.04496,0.094943 c -0.0424,3.556321 0.0704,7.1156386 -0.0069,10.6715406 -0.03335,0.218245 -0.120828,0.38773 -0.285481,0.553093 -0.133106,0.133681 -0.271498,0.214259 -0.44357,0.258268 -3.450129,0.0404 -6.9068951,0.04389 -10.3590645,0.01719 z M 13.416591,5.4929037 l -1.584024,-0.0073 c -1.70066,-0.00784 -1.62065,-0.00422 -1.790177,-0.081085 C 9.7436916,5.2690961 9.530011,4.9941486 9.4723806,4.6711232 9.4577328,4.5890271 9.4539488,4.2623054 9.4535648,3.0488841 L 9.4531016,1.5294449 h -5.94179 V 15.411747 h 9.9120834 z m -1.828813,-2.121128 -1.1353,-1.1353624 -0.0035,1.1183664 c -0.0019,0.6151014 -5.96e-4,1.1260145 0.003,1.1353622 0.0051,0.013409 0.245472,0.016996 1.138811,0.016996 h 1.132327 z"
           id="path1"
           sodipodi:nodetypes="cscccsccssccssscccscsccccccccccscc" /><rect
           style="opacity:1;fill:#000000;fill-opacity:1;stroke-width:2.10786;stroke-linecap:round;stroke-miterlimit:10;paint-order:stroke fill markers"
           id="rect4"
           width="6.4067726"
           height="1.0842229"
           x="0.72281528"
           y="4.0411949"
           ry="0" /><rect
           style="opacity:1;fill:#000000;fill-opacity:1;stroke-width:2.19845;stroke-linecap:round;stroke-miterlimit:10;paint-order:stroke fill markers"
           id="rect5"
           width="5.7496676"
           height="1.3142096"
           x="10.84223"
           y="12.879255"
           ry="0" /><rect
           style="opacity:1;fill:#000000;fill-opacity:1;stroke-width:2.41093;stroke-linecap:round;stroke-miterlimit:10;paint-order:stroke fill markers"
           id="rect6"
           width="3.7126427"
           height="2.4477155"
           x="12.057875"
           y="6.0782199"
           ry="0" /><rect
           style="opacity:1;fill:#000000;fill-opacity:1;stroke-width:1.54261;stroke-linecap:round;stroke-miterlimit:10;paint-order:stroke fill markers"
           id="rect7"
           width="3.7126427"
           height="1.0020849"
           x="1.6099073"
           y="5.6346741"
           ry="0" /><rect
           style="opacity:1;fill:#000000;fill-opacity:1;stroke-width:1.01921;stroke-linecap:round;stroke-miterlimit:10;paint-order:stroke fill markers"
           id="rect8"
           width="1.6756176"
           height="0.96922952"
           x="0.55853957"
           y="13.996333"
           ry="0" /><rect
           style="opacity:1;fill:#000000;fill-opacity:1;stroke-width:1.01921;stroke-linecap:round;stroke-miterlimit:10;paint-order:stroke fill markers"
           id="rect9"
           width="1.6756176"
           height="0.96922952"
           x="12.484993"
           y="0.91994631"
           ry="0" /><rect
           style="opacity:1;fill:#000000;fill-opacity:1;stroke-width:1.23597;stroke-linecap:round;stroke-miterlimit:10;paint-order:stroke fill markers"
           id="rect10"
           width="2.4641435"
           height="0.96922952"
           x="13.733492"
           y="2.1684456"
           ry="0" /></g><path
         style="fill:#000000;stroke-width:0.124392"
         d="M 6.7628871,16.274538 C 5.965832,16.229306 4.8442826,16.093303 4.3687458,15.984215 4.0818302,15.918397 3.7279621,15.783783 3.6213,15.699883 l -0.083799,-0.06591 v -0.813499 c 0,-0.887078 0.02392,-1.059448 0.1891509,-1.36303 0.1419698,-0.260846 0.4316652,-0.580094 0.7323882,-0.807103 0.3096348,-0.233736 0.9825841,-0.576285 1.4068921,-0.716146 l 0.2714248,-0.08946 0.073079,0.09507 c 0.1349885,0.175614 0.3030128,0.310822 0.7731437,0.62214 0.7196382,0.476542 0.9589707,0.575488 1.3919984,0.575488 0.4374554,0 0.6836977,-0.103055 1.4136625,-0.591611 0.4815554,-0.322305 0.6165614,-0.431175 0.7509254,-0.60555 l 0.0729,-0.0946 0.349119,0.120598 c 1.076627,0.371907 1.884406,1.004599 2.157916,1.690187 0.07067,0.17713 0.07593,0.242932 0.08674,1.083424 l 0.0115,0.89484 -0.125759,0.08236 c -0.390575,0.255793 -1.388156,0.439314 -2.972655,0.546865 -0.4262259,0.02893 -2.8965355,0.03672 -3.3570339,0.01062 z M 8.0926049,12.744596 C 7.6992922,12.682198 7.4742139,12.570613 6.7056499,12.05699 6.1096771,11.658709 5.9676811,11.532774 5.7572725,11.215875 5.6454632,11.047479 5.447816,10.550906 5.4468431,10.435949 5.4466071,10.40732 5.3723202,10.335892 5.2817752,10.27722 4.9125311,10.037958 4.6926732,9.4682642 4.7892218,9.000918 4.8653541,8.6323969 5.0605476,8.3679744 5.3043864,8.3030405 5.3937322,8.279248 5.3973786,8.2700029 5.4066706,8.043699 5.4156906,7.8240271 5.4109944,7.8055494 5.3331982,7.7545747 5.2874918,7.7246244 5.2191615,7.6500773 5.1813605,7.5889139 5.1180003,7.4863952 5.1134562,7.4378484 5.1231871,6.9674473 L 5.1337385,6.4571864 5.2576447,6.3333085 5.381551,6.2094305 5.998167,6.1929748 6.6147823,6.1765183 6.1915409,6.0957433 C 5.9587571,6.0513166 5.761842,5.9981429 5.7539509,5.9775786 5.730254,5.9158247 5.8676086,5.5881417 6.0086835,5.369871 6.3422765,4.8537376 6.9082563,4.4545102 7.5583872,4.2767496 7.7966737,4.2115962 7.9078625,4.2020213 8.408492,4.203534 c 0.5397293,0.00162 0.5935597,0.00754 0.8557142,0.093882 0.586856,0.1932916 1.0801258,0.5237493 1.3708978,0.9184096 0.250869,0.3405021 0.420578,0.7302052 0.339748,0.7801609 -0.02276,0.014066 -0.220728,0.060441 -0.439928,0.103054 l -0.398547,0.077479 0.620942,0.016456 0.620942,0.016456 0.127808,0.1441092 0.127808,0.1441092 v 0.4762467 c 0,0.5172008 -0.03423,0.6563415 -0.185935,0.7557413 -0.07023,0.046015 -0.07736,0.074284 -0.07736,0.3066321 0,0.2503555 0.0019,0.2564286 0.0885,0.2781558 0.321182,0.080612 0.564546,0.563107 0.515308,1.0216548 -0.04475,0.4167295 -0.223943,0.7500294 -0.496844,0.9241294 -0.09666,0.06166 -0.139877,0.112108 -0.139877,0.163275 0,0.106177 -0.124306,0.493759 -0.203691,0.635096 -0.12617,0.224636 -0.248613,0.383514 -0.416671,0.540657 -0.152599,0.142689 -1.1667802,0.831574 -1.4037323,0.953488 -0.3117025,0.160375 -0.8682316,0.247833 -1.220969,0.191872 z m 0.994847,-0.98889 c 0.1075605,-0.158001 0.1056352,-0.357662 -0.00474,-0.488804 -0.119472,-0.141985 -0.33169,-0.202938 -0.7065587,-0.202938 -0.2760556,0 -0.3391167,0.01112 -0.4903585,0.08649 -0.2070006,0.103151 -0.2879786,0.236844 -0.253803,0.419017 0.025727,0.137153 0.1513524,0.298693 0.2867132,0.368691 l 0.094816,0.04903 V 11.821785 11.65638 h 0.362033 0.362033 v 0.183122 0.183123 l 0.1359109,-0.07616 c 0.074751,-0.04188 0.1710185,-0.12773 0.2139288,-0.190761 z M 7.3662216,10.689443 c 0.1580838,-0.128165 0.3431001,-0.226334 0.5340886,-0.283385 0.1192708,-0.03563 0.145753,-0.0325 0.2468403,0.02912 0.1432369,0.08732 0.3124568,0.08803 0.4537221,0.0019 0.1057585,-0.06448 0.1172692,-0.06504 0.2918927,-0.01428 0.1963742,0.05708 0.4006573,0.171725 0.5434755,0.304981 0.085128,0.07943 0.097002,0.08159 0.2303846,0.04197 0.3232405,-0.09602 0.6315836,-0.278392 0.8653706,-0.511823 0.302287,-0.3018269 0.380605,-0.4631709 0.374278,-0.7710517 -0.0027,-0.1289016 -0.01505,-0.2406946 -0.02757,-0.2484292 -0.05334,-0.032968 -0.38175,0.1594182 -0.556252,0.3258658 C 10.072003,9.8032091 9.9030904,9.8775761 9.609784,9.8780861 9.308876,9.8786091 9.1030519,9.7847861 8.8932788,9.5514683 8.8076629,9.4562429 8.7376134,9.3678498 8.7376134,9.3550391 c 0,-0.047402 -0.2593092,-0.1670612 -0.362033,-0.1670612 -0.1352208,0 -0.3362179,0.112189 -0.4035716,0.2252587 C 7.7985389,9.7044484 7.483106,9.8793201 7.1322104,9.8788091 6.8538644,9.8784001 6.650219,9.7868861 6.4069938,9.5528953 6.2449046,9.3969595 6.0220519,9.2538019 5.941397,9.2538019 c -0.021259,0 -0.034224,0.1170629 -0.034224,0.3090445 v 0.3090437 l 0.1453823,0.1974879 c 0.1800199,0.244539 0.5022761,0.478919 0.8554469,0.622173 0.1464575,0.0594 0.2786043,0.108261 0.2936596,0.108565 0.015055,2.99e-4 0.089107,-0.0495 0.1645605,-0.11067 z M 5.4134909,9.2702553 c 0,-0.2675228 -0.013265,-0.4772255 -0.030189,-0.4772255 -0.067903,0 -0.142312,0.292068 -0.1275052,0.5004793 0.013397,0.1885767 0.094985,0.453971 0.1395598,0.453971 0.00998,0 0.018136,-0.2147509 0.018136,-0.4772248 z m 6.0789051,0 c 0.0095,-0.1798178 -0.0019,-0.2592801 -0.05213,-0.3620331 l -0.06436,-0.1316483 -0.0013,0.4607693 c -0.0013,0.4434978 6.6e-4,0.4570682 0.05213,0.3620329 0.02961,-0.05467 0.05893,-0.2015576 0.06571,-0.3291208 z M 7.4642865,9.145575 C 7.563362,9.0700068 7.6815285,8.8763726 7.6477155,8.8449983 7.615407,8.8150216 6.6591309,8.7087014 6.6438726,8.7333897 c -0.027732,0.044868 0.054984,0.2665132 0.1312959,0.3518173 0.1685365,0.1884 0.484922,0.2161161 0.689118,0.060368 z m 2.3357979,0.063098 c 0.058252,-0.02482 0.1378114,-0.080358 0.1768052,-0.1234203 0.06969,-0.076957 0.1537634,-0.3140555 0.1268224,-0.3576454 -0.01383,-0.022371 -0.974035,0.092862 -1.0032796,0.1204024 -0.00861,0.00811 0.013596,0.068957 0.04937,0.1352018 0.1294948,0.2398186 0.3980594,0.3329331 0.6502835,0.2254615 z m 1.1032856,-1.2306254 -0.01,-0.1559241 -2.4930907,-0.00843 -2.4930912,-0.00843 -3.7e-6,0.1729954 -3.5e-6,0.1729954 2.5031093,-0.00864 2.5031098,-0.00864 z"
         id="path10" /></g></g></svg>
