<?xml version="1.0" encoding="UTF-8" standalone="no"?>
<!-- Created with Inkscape (http://www.inkscape.org/) -->

<svg
   width="64"
   height="64"
   viewBox="0 0 16.933333 16.933333"
   version="1.1"
   id="svg1"
   inkscape:version="1.4.2 (ebf0e940d0, 2025-05-08)"
   sodipodi:docname="invoice.svg"
   xml:space="preserve"
   xmlns:inkscape="http://www.inkscape.org/namespaces/inkscape"
   xmlns:sodipodi="http://sodipodi.sourceforge.net/DTD/sodipodi-0.dtd"
   xmlns="http://www.w3.org/2000/svg"
   xmlns:svg="http://www.w3.org/2000/svg"><sodipodi:namedview
     id="namedview1"
     pagecolor="#ffffff"
     bordercolor="#000000"
     borderopacity="0.25"
     inkscape:showpageshadow="2"
     inkscape:pageopacity="0.0"
     inkscape:pagecheckerboard="0"
     inkscape:deskcolor="#d1d1d1"
     inkscape:document-units="mm"
     inkscape:zoom="4.026501"
     inkscape:cx="21.979381"
     inkscape:cy="41.847748"
     inkscape:window-width="1920"
     inkscape:window-height="1008"
     inkscape:window-x="0"
     inkscape:window-y="0"
     inkscape:window-maximized="1"
     inkscape:current-layer="g3" /><defs
     id="defs1" /><g
     inkscape:label="Layer 1"
     inkscape:groupmode="layer"
     id="layer1"><g
       id="g3"><path
         style="fill:#000000;fill-opacity:1;stroke-width:0.0513894"
         d="M 3.3141719,16.381097 C 2.9938699,16.304954 2.7441548,16.107424 2.613003,15.826449 2.4107429,11.031772 2.5230278,6.1533287 2.5255843,1.3322919 L 2.5626313,1.2235176 C 2.616351,1.065781 2.6876652,0.95258553 2.8110795,0.82917043 2.9344947,0.70575583 3.0476899,0.63443973 3.205427,0.58072233 l 0.1087737,-0.037043 h 6.7711923 l 0.08158,0.039401 c 0.07264,0.035084 0.304581,0.2622913 2.11693,2.07374247 1.950779,1.9498123 2.037218,2.0382859 2.080306,2.1292836 l 0.04496,0.094943 c -0.0424,3.556321 0.0704,7.1156386 -0.0069,10.6715406 -0.03335,0.218245 -0.120828,0.38773 -0.285481,0.553093 -0.133106,0.133681 -0.271498,0.214259 -0.44357,0.258268 -3.450129,0.0404 -6.9068951,0.04389 -10.3590645,0.01719 z M 13.416591,5.4929037 l -1.584024,-0.0073 c -1.70066,-0.00784 -1.62065,-0.00422 -1.790177,-0.081085 C 9.7436916,5.2690961 9.530011,4.9941486 9.4723806,4.6711232 9.4577328,4.5890271 9.4539488,4.2623054 9.4535648,3.0488841 L 9.4531016,1.5294449 h -5.94179 V 15.411747 h 9.9120834 z m -1.828813,-2.121128 -1.1353,-1.1353624 -0.0035,1.1183664 c -0.0019,0.6151014 -5.96e-4,1.1260145 0.003,1.1353622 0.0051,0.013409 0.245472,0.016996 1.138811,0.016996 h 1.132327 z"
         id="path1"
         sodipodi:nodetypes="cscccsccssccssscccscsccccccccccscc" /><path
         id="path2"
         style="fill:#000000;stroke-width:0.143631;fill-opacity:1"
         d="M 8.4666667,6.8378257 A 3.7454977,3.7454977 0 0 0 4.7211589,10.583334 3.7454977,3.7454977 0 0 0 8.4666667,14.328842 3.7454977,3.7454977 0 0 0 12.212174,10.583334 3.7454977,3.7454977 0 0 0 8.4666667,6.8378257 Z m 0,0.9363769 A 2.8091233,2.8091233 0 0 1 11.275798,10.583334 2.8091233,2.8091233 0 0 1 8.4666667,13.392466 2.8091233,2.8091233 0 0 1 5.6575358,10.583334 2.8091233,2.8091233 0 0 1 8.4666667,7.7742026 Z m -0.014986,0.4345988 c -0.1349193,-4.199e-4 -0.2672197,0.014005 -0.2976562,0.044442 -0.025081,0.025082 -0.045475,0.1344288 -0.045475,0.2428793 0,0.1922953 -0.00306,0.1976821 -0.1235067,0.2206583 C 7.7868625,8.7545855 7.4704495,8.9571144 7.349939,9.1234743 7.1452242,9.4060751 7.1192805,9.8510642 7.288444,10.17819 c 0.1279703,0.247468 0.630135,0.589619 1.0671183,0.727088 0.2475918,0.07789 0.5012753,0.229704 0.5451864,0.326078 0.057847,0.12696 -0.0135,0.309075 -0.1483114,0.378789 -0.2488614,0.128691 -0.6204184,0.03111 -0.9549804,-0.250631 -0.097806,-0.08236 -0.1955728,-0.149345 -0.2175578,-0.149345 -0.058997,0 -0.5736084,0.495131 -0.5736084,0.551905 0,0.149788 0.813909,0.701766 1.0345622,0.701766 0.057042,0 0.067696,0.03456 0.067696,0.221692 0,0.121924 0.011387,0.233073 0.025321,0.247013 0.013934,0.01393 0.1672853,0.02532 0.3410645,0.02532 0.3521488,0 0.3418708,0.0092 0.3643188,-0.318844 0.00937,-0.136921 0.021667,-0.15146 0.162264,-0.19327 0.601201,-0.1788 0.9716391,-0.675742 0.9208741,-1.235584 C 9.8986739,10.948602 9.7919922,10.729002 9.6107829,10.569898 9.4303815,10.411503 9.2384494,10.317149 8.7353841,10.137883 8.5054698,10.055953 8.2790837,9.9524573 8.2320557,9.9084393 8.1184201,9.8020845 8.1194647,9.633199 8.2341227,9.558073 8.455182,9.4132293 8.7176713,9.4524643 9.0252889,9.6758953 c 0.096856,0.070349 0.2010464,0.1281576 0.2315104,0.1281576 0.083455,0 0.5234823,-0.475698 0.5234823,-0.565857 0,-0.1139111 -0.3783865,-0.3843104 -0.6790283,-0.4852417 L 8.849589,8.6682049 8.8382202,8.4857871 C 8.8312212,8.371063 8.8036229,8.2851252 8.7643229,8.2553102 8.7239123,8.2246532 8.5865998,8.2092213 8.4516805,8.2088014 Z" /><path
         id="rect1"
         style="fill:#000000;stroke-width:2.09936;stroke-linecap:round;stroke-miterlimit:10;paint-order:stroke fill markers"
         d="m 4.6598509,2.3661437 h 2.7802497 c 0.2521053,0 0.4550637,0.2029584 0.4550637,0.4550636 V 3.251824 c 0,0.2521052 -0.2029584,0.4550636 -0.4550637,0.4550636 H 4.6598509 c -0.2521053,0 -0.4550636,-0.2029584 -0.4550636,-0.4550636 V 2.8212073 c 0,-0.2521052 0.2029583,-0.4550636 0.4550636,-0.4550636 z" /><path
         id="rect2"
         style="fill:#000000;stroke-width:2.38403;stroke-linecap:round;stroke-miterlimit:10;paint-order:stroke fill markers"
         d="m 4.6598509,4.387342 h 3.8489293 c 0.2521052,0 0.4550636,0.2029584 0.4550636,0.4550636 v 0.4306166 c 0,0.2521053 -0.2029584,0.4550637 -0.4550636,0.4550637 H 4.6598509 c -0.2521053,0 -0.4550636,-0.2029584 -0.4550636,-0.4550637 V 4.8424056 c 0,-0.2521052 0.2029583,-0.4550636 0.4550636,-0.4550636 z" /></g></g></svg>
